<?xml version="1.0" encoding="UTF-8"?>
<svg width="21px" height="27px" viewBox="0 0 21 27" version="1.1" xmlns="http://www.w3.org/2000/svg">
    <!-- Generator: Sketch 64 (93537) - https://sketch.com -->
    <title>Mask</title>
    <desc>Created with Sketch.</desc>
    <g id="Symbols" stroke="none" stroke-width="1" fill="none" fill-rule="evenodd">
        <g id="Inputs/Input-+-Label-Alt-+-Btn-Dark" transform="translate(-172.000000, -40.000000)" fill="#FFFFFF" fill-rule="nonzero">
            <g id="Mask" transform="translate(168.000000, 40.000000)">
                <path d="M24.2666667,12.47 L16.4410256,4.495 C16.2974359,4.4225 16.1538462,4.35 15.9384615,4.35 L8.54358974,4.35 C8.18461538,4.35 7.8974359,4.64 7.8974359,5.0025 L7.8974359,15.225 L7.8974359,25.8476752 C7.8974359,26.3999599 8.34515115,26.8476752 8.8974359,26.8476752 L24.4139794,26.8476752 L24.4139794,26.8476752 L24.4139794,13.0535282 C24.4139794,12.7787445 24.3648751,12.5842351 24.2666667,12.47 Z M22.9941311,25.377776 L9.3410975,25.377776 L9.3410975,5.81758286 L15.8021323,5.81758286 L22.2546659,12.3178466 L16.5294875,12.3178466 L16.5294875,7.28678032 L15.0769231,7.28678032 L15.0769231,12.7739621 C15.0769231,13.3262468 15.5246383,13.7739621 16.0769231,13.7739621 L22.9941311,13.7739621 L22.9941311,13.7739621 L22.9941311,25.377776 Z" id="XMLID_229_"></path>
                <path d="M12.9414771,2.17456694 L12.9414771,1.725 C12.9414771,1.17271525 12.4937619,0.725 11.9414771,0.725 L5.30769231,0.725 C4.75540756,0.725 4.30769231,1.17271525 4.30769231,1.725 L4.30769231,11.6 L4.30769231,11.6 L4.30769231,22.2014391 C4.30769231,22.7537238 4.75540756,23.2014391 5.30769231,23.2014391 L5.74422152,23.2014391 L5.74422152,23.2014391 L5.74422152,2.17456694 L12.9414771,2.17456694 Z" id="Combined-Shape"></path>
            </g>
        </g>
    </g>
</svg>
